<svg xmlns="http://www.w3.org/2000/svg" xmlns:xlink="http://www.w3.org/1999/xlink" width="260" height="224" viewBox="0 0 260 224">
    <defs>
        <filter id="o2gha5sjga" width="251.5%" height="213.6%" x="-75.8%" y="-54.8%" filterUnits="objectBoundingBox">
            <feOffset dy="2" in="SourceAlpha" result="shadowOffsetOuter1"/>
            <feGaussianBlur in="shadowOffsetOuter1" result="shadowBlurOuter1" stdDeviation="18"/>
            <feColorMatrix in="shadowBlurOuter1" values="0 0 0 0 0 0 0 0 0 0 0 0 0 0 0 0 0 0 0.0365220717 0"/>
        </filter>
        <filter id="fx79emb09c" width="251.5%" height="213.6%" x="-75.8%" y="-54.8%" filterUnits="objectBoundingBox">
            <feOffset dy="2" in="SourceAlpha" result="shadowOffsetOuter1"/>
            <feGaussianBlur in="shadowOffsetOuter1" result="shadowBlurOuter1" stdDeviation="18"/>
            <feColorMatrix in="shadowBlurOuter1" values="0 0 0 0 0 0 0 0 0 0 0 0 0 0 0 0 0 0 0.0365220717 0"/>
        </filter>
        <rect id="fiam1w7hfb" width="72.6" height="96.8" x=".55" y=".55" rx="16.5"/>
        <rect id="7sozxhlpid" width="72.6" height="96.8" x=".55" y="3.85" rx="16.5"/>
    </defs>
    <g fill="none" fill-rule="evenodd" transform="translate(0 1)">
        <rect width="260" height="220" rx="18"/>
        <circle cx="130" cy="111" r="95" fill="#000" fill-opacity=".03"/>
        <g transform="translate(67 33)">
            <use fill="#000" filter="url(#o2gha5sjga)" xlink:href="#fiam1w7hfb"/>
            <use fill="#FFF" xlink:href="#fiam1w7hfb"/>
            <rect width="40.7" height="6.6" x="15.4" y="70.4" fill="#EAEDF4" rx="3.3"/>
            <rect width="40.7" height="6.6" x="15.4" y="81.4" fill="#EAEDF4" rx="3.3"/>
            <g transform="translate(9.9 9.9)">
                <circle cx="26.95" cy="26.95" r="26.95" fill="#F2F2F9"/>
                <g>
                    <path fill="#D9D9E3" d="M33.892 9.36c0-8.48-4.997-9.36-13.18-9.266C12.528.188 7.532.88 7.532 9.36c0 7.165 26.36 7.165 26.36 0z" transform="rotate(-180 23.87 21.945)"/>
                    <path fill="#FFF" d="M41.423 12.184c0-8.48-8.347-10.207-20.711-10.207C8.347 1.977 0 3.704 0 12.184c0 7.165 41.423 7.165 41.423 0z" transform="rotate(-180 23.87 21.945)"/>
                    <path fill="#7C7E92" d="M39.428 12.01c1.28.61 1.995 1.295 1.995 2.017 0 2.6-9.273 4.708-20.711 4.708C9.272 18.735 0 16.627 0 14.027c0-.722.716-1.406 1.995-2.018 3.324 1.75 10.456 2.96 18.717 2.96 8.253 0 15.378-1.207 18.707-2.953z" transform="rotate(-180 23.87 21.945)"/>
                    <path fill="#E3E3EF" d="M20.712 9.32c8.262 0 15.394 1.1 18.718 2.69-3.324 1.75-10.456 2.959-18.718 2.959-8.263 0-15.395-1.21-18.72-2.96C5.318 10.42 12.45 9.32 20.713 9.32z" transform="rotate(-180 23.87 21.945)"/>
                </g>
                <path fill="#FFF" d="M18.676 32.126c.932 1.613 3.892.702 5.416-.178 1.524-.88-4.014-7.285-5.538-6.405-1.524.88-.81 4.97.122 6.583zM31.189 32.51c-2.733 0-3.746-4.521-3.746-7.156s12.197-.25 12.197 2.386c0 2.635-5.718 4.77-8.451 4.77z"/>
                <path fill="#A1A3B4" fill-rule="nonzero" d="M21.728 14.313c.176-.186.468-.194.653-.019.186.176.194.468.019.653-1.154 1.22-1.416 2.258-.917 3.145 1.285 1.653 1.643 3.15.994 4.445-.114.228-.392.32-.62.206-.228-.114-.32-.392-.206-.62.463-.925.19-2.064-.935-3.52-.763-1.342-.395-2.802 1.012-4.29zM27.118 10.463c.176-.186.468-.194.653-.019.186.176.194.468.019.653-1.154 1.22-1.416 2.258-.917 3.145 1.285 1.653 1.643 3.15.994 4.445-.114.228-.392.32-.62.206-.228-.114-.32-.392-.206-.62.463-.925.19-2.064-.935-3.52-.763-1.342-.395-2.802 1.012-4.29zM33.278 14.313c.176-.186.468-.194.653-.019.186.176.194.468.019.653-1.154 1.22-1.416 2.258-.917 3.145 1.285 1.653 1.643 3.15.994 4.445-.114.228-.392.32-.62.206-.228-.114-.32-.392-.206-.62.463-.925.19-2.064-.935-3.52-.763-1.342-.395-2.802 1.012-4.29z"/>
            </g>
        </g>
        <g transform="translate(117 84)">
            <use fill="#000" filter="url(#fx79emb09c)" xlink:href="#7sozxhlpid"/>
            <use fill="#FFF" xlink:href="#7sozxhlpid"/>
            <rect width="40.7" height="6.6" x="15.4" y="73.7" fill="#EAEDF4" rx="3.3"/>
            <rect width="40.7" height="6.6" x="15.4" y="84.7" fill="#EAEDF4" rx="3.3"/>
            <g transform="translate(11)">
                <g transform="rotate(-180 25.588 31.618)">
                    <path fill="#69922C" d="M39.207 9.259C39.207 4.145 32.977 0 25.295 0 17.61 0 11.383 4.145 11.383 9.259c0 4.518 27.824 4.518 27.824 0z"/>
                    <path fill="#90C444" d="M50.59 27.528c0-13.806-11.326-24.999-25.295-24.999C11.325 2.53 0 13.722 0 27.528c0 12.199 50.59 12.199 50.59 0z"/>
                    <ellipse cx="25.295" cy="30.353" fill="#F8FAFF" rx="25.295" ry="6.324"/>
                    <path fill="#FFF" d="M20.236 6.324v1.611C13.405 9.61 8.09 14.88 6.645 21.501H5.06c1.486-7.493 7.489-13.439 15.177-15.177z"/>
                </g>
                <path fill="#90C444" d="M48.646 0l-.016.214-.025.312c-.111 1.366-.459 5.057-1.095 6.99-1.855 5.635-5.86 7.685-11 7.66.365-.787.798-1.56 1.296-2.32 1.492-2.277 4.351-5.616 8.576-10.018-5.454 4.65-9.147 8.515-11.077 11.594C33.172 9.572 36.873 1.466 48.645 0zM6.91 11.383s.283 4.261.93 6.263c1.517 4.696 4.795 6.404 9 6.384-.299-.657-.653-1.301-1.06-1.935-1.221-1.897-3.56-4.68-7.017-8.347 4.462 3.874 7.483 7.094 9.062 9.66C19.57 19.36 16.542 12.604 6.91 11.383z"/>
                <circle cx="30.94" cy="31.618" r="2.529" fill="#FF9650"/>
                <circle cx="24.616" cy="5.059" r="2.529" fill="#FF9650"/>
                <path fill="#FFC119" d="M26.606 22.765c2.087 0 5.599-1.622 5.599-3.622 0-2.001-1.692-5.231-3.78-5.231-2.087 0-5.073 2.134-5.073 4.135 0 2 1.167 4.718 3.254 4.718zM20.632 36.677c1.984 0 2.72-3.58 2.72-5.667 0-2.086-3.278-3.186-5.262-3.186-1.984 0-3.592 2.989-3.592 5.075 0 2.087 4.15 3.778 6.134 3.778z"/>
            </g>
            <path fill="#FF9650" d="M74.025 72.396c-1.795 1.739-4.708 1.739-6.503 0l-10.075-9.761c-1.796-1.738-1.796-4.56 0-6.299 1.794-1.739 4.707-1.739 6.503 0l6.003 5.815c.453.438 1.189.438 1.643 0L87.85 46.404c1.795-1.739 4.708-1.739 6.503 0 .863.836 1.347 1.969 1.347 3.15 0 1.18-.484 2.314-1.347 3.15L74.025 72.395z"/>
        </g>
    </g>
</svg>
