<svg xmlns="http://www.w3.org/2000/svg" xmlns:xlink="http://www.w3.org/1999/xlink" width="260" height="220" viewBox="0 0 260 220">
    <defs>
        <filter id="r3zaqd6jxa" width="220.2%" height="188.6%" x="-60.1%" y="-42.5%" filterUnits="objectBoundingBox">
            <feOffset dy="2" in="SourceAlpha" result="shadowOffsetOuter1"/>
            <feGaussianBlur in="shadowOffsetOuter1" result="shadowBlurOuter1" stdDeviation="16.5"/>
            <feColorMatrix in="shadowBlurOuter1" values="0 0 0 0 0 0 0 0 0 0 0 0 0 0 0 0 0 0 0.0365220717 0"/>
        </filter>
        <rect id="qaq7nun87b" width="84" height="114" x="58.3" y=".6" rx="18"/>
    </defs>
    <g fill="none" fill-rule="evenodd">
        <rect width="260" height="220" rx="18"/>
        <circle cx="130" cy="111" r="95" fill="#000" fill-opacity=".03"/>
        <g transform="translate(29 53)">
            <use fill="#000" filter="url(#r3zaqd6jxa)" xlink:href="#qaq7nun87b"/>
            <use fill="#FFF" xlink:href="#qaq7nun87b"/>
            <g>
                <path d="M0 0H53.914V53.914H0z" transform="translate(0 71)"/>
                <g>
                    <path fill="#CEC9BA" d="M9.898 29.027c.112 2.186.93 5.008 2.7 5.801l-1.27 1.268c1.534 1.65 1.497 4.24-.108 5.844-.821.82-1.9 1.231-2.979 1.231-1.079 0-2.157-.41-2.979-1.232-.757-.758-1.184-1.752-1.22-2.808-1.057-.037-2.051-.462-2.81-1.22C.438 37.115 0 36.058 0 34.93c0-1.124.438-2.181 1.233-2.977 1.556-1.554 4.244-1.597 5.846-.108z" transform="translate(0 71) translate(4.493 5.391)"/>
                    <path fill="#FFC119" d="M39.098 4.077c5.434 5.434 5.434 14.279 0 19.715-3.968 3.968-17.063 10.257-23.88 10.257-2.513 0-3.537-3.64-3.537-6.039.212-6.925 2.272-18.502 7.702-23.933 5.434-5.436 14.279-5.434 19.715 0zM37.933 9.72c-.212-.382-.692-.525-1.075-.31-.38.21-.52.692-.31 1.073 1.552 2.81.498 4.894.448 4.994-.206.382-.065.86.317 1.066.12.067.25.098.378.098.281 0 .552-.148.694-.414l.006-.012.043-.084c.255-.534 1.308-3.133-.501-6.411z" transform="translate(0 71) translate(4.493 5.391)"/>
                </g>
            </g>
            <rect width="84" height="57.6" x="58.3" y="34.2" fill="#FFF" rx="18"/>
            <g transform="translate(67.6 13.2)">
                <rect width="19.2" height="19.2" fill="#90C444" rx="8.4"/>
                <path fill="#FFF" fill-rule="nonzero" d="M9.032 14.017c-.544.51-1.427.51-1.97 0L4.007 11.15c-.544-.51-.544-1.34 0-1.85s1.427-.51 1.97 0l1.82 1.708c.137.129.36.129.498 0l4.925-4.625c.544-.51 1.427-.51 1.971 0 .261.245.408.578.408.925 0 .347-.147.68-.408.925l-6.16 5.784z"/>
            </g>
            <g transform="translate(67.9 38)">
                <rect width="19.2" height="19.2" fill="#90C444" rx="8.4"/>
                <path fill="#FFF" fill-rule="nonzero" d="M9.032 14.017c-.544.51-1.427.51-1.97 0L4.007 11.15c-.544-.51-.544-1.34 0-1.85s1.427-.51 1.97 0l1.82 1.708c.137.129.36.129.498 0l4.925-4.625c.544-.51 1.427-.51 1.971 0 .261.245.408.578.408.925 0 .347-.147.68-.408.925l-6.16 5.784z"/>
            </g>
            <rect width="19.2" height="19.2" x="67.9" y="61.8" fill="#EAEDF4" rx="8.4"/>
            <rect width="36.77" height="4" x="94" y="65" fill="#EAEDF4" rx="2"/>
            <rect width="36.77" height="4" x="94" y="42" fill="#EAEDF4" rx="2"/>
            <rect width="36.77" height="4" x="94" y="17" fill="#EAEDF4" rx="2"/>
            <rect width="36.77" height="4" x="94" y="88" fill="#EAEDF4" rx="2"/>
            <rect width="26.77" height="4" x="94" y="73" fill="#EAEDF4" rx="2"/>
            <rect width="26.77" height="4" x="94" y="50" fill="#EAEDF4" rx="2"/>
            <rect width="26.77" height="4" x="94" y="25" fill="#EAEDF4" rx="2"/>
            <rect width="26.77" height="4" x="94" y="96" fill="#EAEDF4" rx="2"/>
            <rect width="19.2" height="19.2" x="67.9" y="84.6" fill="#EAEDF4" rx="8.4"/>
        </g>
        <g>
            <path fill="#27AC09" d="M40.423 1.325c.515.892-.843 5.967-4.704 8.952-2.775-.992-6.356-1.122-10.898.032l.018-.028c1.845-2.814 6.132-5.403 12.862-7.769-6.214 1.921-10.55 3.972-13.007 6.153.076-.657.113-1.212.113-1.667 0-.324-.02-.712-.057-1.162.974-1.593 2.379-3.187 4.263-4.275C33.796-1.2 39.857.345 40.423 1.325z" transform="translate(182 28)"/>
            <path fill="#1B1E35" d="M22.868 1.117l.018.09c.485 2.794.728 4.692.728 5.693 0 .84-.171 2.19-.513 4.05-.596.198-1.207.418-1.835.661-.333-.157-.661-.306-.985-.448.556-1.983.833-3.404.833-4.263 0-.968-.352-2.647-1.055-5.039-.226-.769.214-1.576.983-1.802l.072-.019c.781-.187 1.567.295 1.754 1.077z" transform="translate(182 28)"/>
            <path fill="#F46708" d="M.269 29.515c-1.567-11.244 3.495-25.212 21-17.092 19.17-7.3 22.917 7.466 21 17.092-3.258 16.845-11.284 21.08-20.5 16.527-10.194 5.9-17.707-.977-21.5-16.527zM11.302 14.21c-.222-.221-.551-.317-.872-.22-.143.041-3.493 1.073-4.765 5.476-.134.468.132.958.602 1.09.465.134.954-.136 1.088-.6.936-3.247 3.197-4.148 3.538-4.269l.04-.013c.462-.14.727-.626.589-1.09-.042-.146-.12-.273-.22-.374z" transform="translate(182 28)"/>
        </g>
        <circle cx="193.5" cy="123.5" r="6.5" fill="#F8FAFF"/>
        <circle cx="61.5" cy="93.5" r="6.5" fill="#F8FAFF"/>
    </g>
</svg>
