<svg xmlns="http://www.w3.org/2000/svg" xmlns:xlink="http://www.w3.org/1999/xlink" width="260" height="220" viewBox="0 0 260 220">
    <defs>
        <filter id="dh1jwayq9a" width="106.7%" height="103.5%" x="-3.3%" y="-.9%" filterUnits="objectBoundingBox">
            <feOffset dy="1" in="SourceAlpha" result="shadowOffsetOuter1"/>
            <feGaussianBlur in="shadowOffsetOuter1" result="shadowBlurOuter1" stdDeviation=".5"/>
            <feColorMatrix in="shadowBlurOuter1" values="0 0 0 0 0 0 0 0 0 0 0 0 0 0 0 0 0 0 0.0694067029 0"/>
        </filter>
        <filter id="bpnt9rcemc" width="106.7%" height="103.5%" x="-3.3%" y="-.9%" filterUnits="objectBoundingBox">
            <feOffset dy="1" in="SourceAlpha" result="shadowOffsetOuter1"/>
            <feGaussianBlur in="shadowOffsetOuter1" result="shadowBlurOuter1" stdDeviation=".5"/>
            <feColorMatrix in="shadowBlurOuter1" values="0 0 0 0 0 0 0 0 0 0 0 0 0 0 0 0 0 0 0.0694067029 0"/>
        </filter>
        <filter id="au64cxrwle" width="169.3%" height="143.9%" x="-34.7%" y="-18.6%" filterUnits="objectBoundingBox">
            <feOffset dy="5" in="SourceAlpha" result="shadowOffsetOuter1"/>
            <feGaussianBlur in="shadowOffsetOuter1" result="shadowBlurOuter1" stdDeviation="10"/>
            <feColorMatrix in="shadowBlurOuter1" values="0 0 0 0 0 0 0 0 0 0 0 0 0 0 0 0 0 0 0.102982955 0"/>
        </filter>
        <rect id="llyldwwuvb" width="60.113" height="114.127" x="0" y="0" rx="9.24"/>
        <rect id="6xkesnal6d" width="60.113" height="114.127" x="0" y="0" rx="9.24"/>
        <rect id="bx52x3owdf" width="93.776" height="148.038" x="0" y="0" rx="14.414"/>
    </defs>
    <g fill="none" fill-rule="evenodd">
        <rect width="260" height="220" rx="18"/>
        <circle cx="130" cy="111" r="95" fill="#000" fill-opacity=".03"/>
        <g>
            <g opacity=".602" transform="translate(34 35) translate(.88 18.37)">
                <use fill="#000" filter="url(#dh1jwayq9a)" xlink:href="#llyldwwuvb"/>
                <use fill="#FFF" xlink:href="#llyldwwuvb"/>
                <g transform="translate(5.227 31.363)">
                    <rect width="15.682" height="15.682" fill="#F8FAFF" rx="3.485"/>
                    <path fill="#9EA6BB" d="M6.976 1.769c.252 0 .456.204.456.455v3.643c0 .821-.501 1.525-1.214 1.822v5.465c0 .419-.34.759-.76.759-.419 0-.759-.34-.759-.76V7.69c-.713-.297-1.214-1-1.214-1.822V2.224c0-.251.204-.455.455-.455.252 0 .456.204.456.455v2.58c0 .169.136.304.303.304.168 0 .304-.135.304-.303v-2.58c0-.252.204-.456.455-.456.252 0 .456.204.456.455v2.58c0 .169.135.304.303.304.168 0 .304-.135.304-.303v-2.58c0-.252.204-.456.455-.456zm3.529 0c1.023 0 1.973 1.16 1.973 3.097l.002.481.001.272c0 .07-.001.136-.003.198v.05c0 .821-.5 1.525-1.214 1.822v5.465c0 .419-.34.759-.76.759-.418 0-.758-.34-.758-.76V7.69c-.714-.297-1.215-1-1.215-1.822v-.05c-.002-.062-.002-.128-.003-.198l.001-.272.002-.481c0-1.936.95-3.097 1.974-3.097z"/>
                    <rect width="17.424" height="1.742" x="19.166" y="4.356" fill="#D4D8E4" rx=".871"/>
                    <rect width="11.326" height="1.742" x="19.166" y="8.583" fill="#D4D8E4" rx=".871"/>
                </g>
                <g transform="translate(5.227 69.696)">
                    <rect width="15.682" height="15.682" fill="#F8FAFF" rx="3.485"/>
                    <path fill="#9EA6BB" d="M6.976 1.769c.252 0 .456.204.456.455v3.643c0 .821-.501 1.525-1.214 1.822v5.465c0 .419-.34.759-.76.759-.419 0-.759-.34-.759-.76V7.69c-.713-.297-1.214-1-1.214-1.822V2.224c0-.251.204-.455.455-.455.252 0 .456.204.456.455v2.58c0 .169.136.304.303.304.168 0 .304-.135.304-.303v-2.58c0-.252.204-.456.455-.456.252 0 .456.204.456.455v2.58c0 .169.135.304.303.304.168 0 .304-.135.304-.303v-2.58c0-.252.204-.456.455-.456zm3.529 0c1.023 0 1.973 1.16 1.973 3.097l.002.481.001.272c0 .07-.001.136-.003.198v.05c0 .821-.5 1.525-1.214 1.822v5.465c0 .419-.34.759-.76.759-.418 0-.758-.34-.758-.76V7.69c-.714-.297-1.215-1-1.215-1.822v-.05c-.002-.062-.002-.128-.003-.198l.001-.272.002-.481c0-1.936.95-3.097 1.974-3.097z"/>
                    <rect width="17.424" height="1.742" x="19.166" y="4.356" fill="#D4D8E4" rx=".871"/>
                    <rect width="11.326" height="1.742" x="19.166" y="8.583" fill="#D4D8E4" rx=".871"/>
                </g>
                <g transform="translate(5.227 50.53)">
                    <rect width="15.682" height="15.682" fill="#F8FAFF" rx="3.485"/>
                    <path fill="#9EA6BB" d="M6.976 1.769c.252 0 .456.204.456.455v3.643c0 .821-.501 1.525-1.214 1.822v5.465c0 .419-.34.759-.76.759-.419 0-.759-.34-.759-.76V7.69c-.713-.297-1.214-1-1.214-1.822V2.224c0-.251.204-.455.455-.455.252 0 .456.204.456.455v2.58c0 .169.136.304.303.304.168 0 .304-.135.304-.303v-2.58c0-.252.204-.456.455-.456.252 0 .456.204.456.455v2.58c0 .169.135.304.303.304.168 0 .304-.135.304-.303v-2.58c0-.252.204-.456.455-.456zm3.529 0c1.023 0 1.973 1.16 1.973 3.097l.002.481.001.272c0 .07-.001.136-.003.198v.05c0 .821-.5 1.525-1.214 1.822v5.465c0 .419-.34.759-.76.759-.418 0-.758-.34-.758-.76V7.69c-.714-.297-1.215-1-1.215-1.822v-.05c-.002-.062-.002-.128-.003-.198l.001-.272.002-.481c0-1.936.95-3.097 1.974-3.097z"/>
                    <rect width="17.424" height="1.742" x="19.166" y="4.356" fill="#D4D8E4" rx=".871"/>
                    <rect width="11.326" height="1.742" x="19.166" y="8.583" fill="#D4D8E4" rx=".871"/>
                </g>
                <g transform="translate(5.227 88.862)">
                    <rect width="15.682" height="15.682" fill="#F8FAFF" rx="3.485"/>
                    <path fill="#9EA6BB" d="M6.976 1.769c.252 0 .456.204.456.455v3.643c0 .821-.501 1.525-1.214 1.822v5.465c0 .419-.34.759-.76.759-.419 0-.759-.34-.759-.76V7.69c-.713-.297-1.214-1-1.214-1.822V2.224c0-.251.204-.455.455-.455.252 0 .456.204.456.455v2.58c0 .169.136.304.303.304.168 0 .304-.135.304-.303v-2.58c0-.252.204-.456.455-.456.252 0 .456.204.456.455v2.58c0 .169.135.304.303.304.168 0 .304-.135.304-.303v-2.58c0-.252.204-.456.455-.456zm3.529 0c1.023 0 1.973 1.16 1.973 3.097l.002.481.001.272c0 .07-.001.136-.003.198v.05c0 .821-.5 1.525-1.214 1.822v5.465c0 .419-.34.759-.76.759-.418 0-.758-.34-.758-.76V7.69c-.714-.297-1.215-1-1.215-1.822v-.05c-.002-.062-.002-.128-.003-.198l.001-.272.002-.481c0-1.936.95-3.097 1.974-3.097z"/>
                    <rect width="17.424" height="1.742" x="19.166" y="4.356" fill="#D4D8E4" rx=".871"/>
                    <rect width="11.326" height="1.742" x="19.166" y="8.583" fill="#D4D8E4" rx=".871"/>
                </g>
                <text fill="#1B1E35" font-family="OpenSans-Bold, Open Sans" font-size="10.56" font-weight="bold">
                    <tspan x="17.951" y="20.372">Mon</tspan>
                </text>
            </g>
            <g opacity=".602" transform="translate(34 35) translate(130.108 18.37)">
                <use fill="#000" filter="url(#bpnt9rcemc)" xlink:href="#6xkesnal6d"/>
                <use fill="#FFF" xlink:href="#6xkesnal6d"/>
                <g transform="translate(5.227 31.363)">
                    <rect width="15.682" height="15.682" fill="#F8FAFF" rx="3.485"/>
                    <path fill="#9EA6BB" d="M6.976 1.769c.252 0 .456.204.456.455v3.643c0 .821-.501 1.525-1.214 1.822v5.465c0 .419-.34.759-.76.759-.419 0-.759-.34-.759-.76V7.69c-.713-.297-1.214-1-1.214-1.822V2.224c0-.251.204-.455.455-.455.252 0 .456.204.456.455v2.58c0 .169.136.304.303.304.168 0 .304-.135.304-.303v-2.58c0-.252.204-.456.455-.456.252 0 .456.204.456.455v2.58c0 .169.135.304.303.304.168 0 .304-.135.304-.303v-2.58c0-.252.204-.456.455-.456zm3.529 0c1.023 0 1.973 1.16 1.973 3.097l.002.481.001.272c0 .07-.001.136-.003.198v.05c0 .821-.5 1.525-1.214 1.822v5.465c0 .419-.34.759-.76.759-.418 0-.758-.34-.758-.76V7.69c-.714-.297-1.215-1-1.215-1.822v-.05c-.002-.062-.002-.128-.003-.198l.001-.272.002-.481c0-1.936.95-3.097 1.974-3.097z"/>
                    <rect width="17.424" height="1.742" x="19.166" y="4.356" fill="#D4D8E4" rx=".871"/>
                    <rect width="11.326" height="1.742" x="19.166" y="8.583" fill="#D4D8E4" rx=".871"/>
                </g>
                <g transform="translate(5.227 69.696)">
                    <rect width="15.682" height="15.682" fill="#F8FAFF" rx="3.485"/>
                    <path fill="#9EA6BB" d="M6.976 1.769c.252 0 .456.204.456.455v3.643c0 .821-.501 1.525-1.214 1.822v5.465c0 .419-.34.759-.76.759-.419 0-.759-.34-.759-.76V7.69c-.713-.297-1.214-1-1.214-1.822V2.224c0-.251.204-.455.455-.455.252 0 .456.204.456.455v2.58c0 .169.136.304.303.304.168 0 .304-.135.304-.303v-2.58c0-.252.204-.456.455-.456.252 0 .456.204.456.455v2.58c0 .169.135.304.303.304.168 0 .304-.135.304-.303v-2.58c0-.252.204-.456.455-.456zm3.529 0c1.023 0 1.973 1.16 1.973 3.097l.002.481.001.272c0 .07-.001.136-.003.198v.05c0 .821-.5 1.525-1.214 1.822v5.465c0 .419-.34.759-.76.759-.418 0-.758-.34-.758-.76V7.69c-.714-.297-1.215-1-1.215-1.822v-.05c-.002-.062-.002-.128-.003-.198l.001-.272.002-.481c0-1.936.95-3.097 1.974-3.097z"/>
                    <rect width="17.424" height="1.742" x="19.166" y="4.356" fill="#D4D8E4" rx=".871"/>
                    <rect width="11.326" height="1.742" x="19.166" y="8.583" fill="#D4D8E4" rx=".871"/>
                </g>
                <g transform="translate(5.227 50.53)">
                    <rect width="15.682" height="15.682" fill="#F8FAFF" rx="3.485"/>
                    <path fill="#9EA6BB" d="M6.976 1.769c.252 0 .456.204.456.455v3.643c0 .821-.501 1.525-1.214 1.822v5.465c0 .419-.34.759-.76.759-.419 0-.759-.34-.759-.76V7.69c-.713-.297-1.214-1-1.214-1.822V2.224c0-.251.204-.455.455-.455.252 0 .456.204.456.455v2.58c0 .169.136.304.303.304.168 0 .304-.135.304-.303v-2.58c0-.252.204-.456.455-.456.252 0 .456.204.456.455v2.58c0 .169.135.304.303.304.168 0 .304-.135.304-.303v-2.58c0-.252.204-.456.455-.456zm3.529 0c1.023 0 1.973 1.16 1.973 3.097l.002.481.001.272c0 .07-.001.136-.003.198v.05c0 .821-.5 1.525-1.214 1.822v5.465c0 .419-.34.759-.76.759-.418 0-.758-.34-.758-.76V7.69c-.714-.297-1.215-1-1.215-1.822v-.05c-.002-.062-.002-.128-.003-.198l.001-.272.002-.481c0-1.936.95-3.097 1.974-3.097z"/>
                    <rect width="17.424" height="1.742" x="19.166" y="4.356" fill="#D4D8E4" rx=".871"/>
                    <rect width="11.326" height="1.742" x="19.166" y="8.583" fill="#D4D8E4" rx=".871"/>
                </g>
                <text fill="#1B1E35" font-family="OpenSans-Bold, Open Sans" font-size="10.56" font-weight="bold">
                    <tspan x="18.162" y="20.372">Wed</tspan>
                </text>
            </g>
            <g transform="translate(34 35) translate(48)">
                <use fill="#000" filter="url(#au64cxrwle)" xlink:href="#bx52x3owdf"/>
                <use fill="#FFF" xlink:href="#bx52x3owdf"/>
                <g transform="translate(8.154 48.927)">
                    <rect width="24.463" height="24.463" fill="#F8FAFF" rx="5.436"/>
                    <rect width="36.77" height="4" x="29.846" y="6.073" fill="#EAEDF4" rx="2"/>
                    <rect width="36.77" height="4" x="29.846" y="35.073" fill="#EAEDF4" rx="2"/>
                    <rect width="26.77" height="4" x="29.846" y="14.073" fill="#EAEDF4" rx="2"/>
                    <rect width="26.77" height="4" x="29.846" y="43.073" fill="#EAEDF4" rx="2"/>
                    <rect width="36.77" height="4" x="29.846" y="66.073" fill="#EAEDF4" rx="2"/>
                    <rect width="26.77" height="4" x="29.846" y="74.073" fill="#EAEDF4" rx="2"/>
                    <path fill="#90C444" d="M10.883 2.76c.392 0 .71.318.71.71v5.683c0 1.28-.782 2.379-1.894 2.843v8.524c0 .654-.53 1.184-1.184 1.184-.654 0-1.184-.53-1.184-1.184v-8.524c-1.113-.464-1.895-1.562-1.895-2.843V3.47c0-.392.318-.71.71-.71.393 0 .711.318.711.71v4.026c0 .261.212.473.474.473.261 0 .473-.212.473-.473V3.47c0-.392.318-.71.71-.71.393 0 .711.318.711.71v4.026c0 .261.212.473.474.473.261 0 .473-.212.473-.473V3.47c0-.392.318-.71.71-.71zm5.504 0c1.597 0 3.079 1.81 3.079 4.83 0 .613.01 1.101 0 1.49v.073c0 1.28-.782 2.379-1.894 2.843v8.524c0 .654-.53 1.184-1.185 1.184-.654 0-1.184-.53-1.184-1.184v-8.524c-1.112-.464-1.894-1.562-1.894-2.843V9.08c-.01-.389 0-.877 0-1.49 0-3.02 1.482-4.83 3.078-4.83z"/>
                </g>
                <g transform="translate(8.154 108.726)">
                    <rect width="24.463" height="24.463" fill="#F8FAFF" rx="5.436"/>
                    <path fill="#90C444" d="M10.883 2.76c.392 0 .71.318.71.71v5.683c0 1.28-.782 2.379-1.894 2.843v8.524c0 .654-.53 1.184-1.184 1.184-.654 0-1.184-.53-1.184-1.184v-8.524c-1.113-.464-1.895-1.562-1.895-2.843V3.47c0-.392.318-.71.71-.71.393 0 .711.318.711.71v4.026c0 .261.212.473.474.473.261 0 .473-.212.473-.473V3.47c0-.392.318-.71.71-.71.393 0 .711.318.711.71v4.026c0 .261.212.473.474.473.261 0 .473-.212.473-.473V3.47c0-.392.318-.71.71-.71zm5.504 0c1.597 0 3.079 1.81 3.079 4.83 0 .613.01 1.101 0 1.49v.073c0 1.28-.782 2.379-1.894 2.843v8.524c0 .654-.53 1.184-1.185 1.184-.654 0-1.184-.53-1.184-1.184v-8.524c-1.112-.464-1.894-1.562-1.894-2.843V9.08c-.01-.389 0-.877 0-1.49 0-3.02 1.482-4.83 3.078-4.83z"/>
                </g>
                <g transform="translate(8.154 78.826)">
                    <rect width="24.463" height="24.463" fill="#F8FAFF" rx="5.436"/>
                    <path fill="#90C444" d="M10.883 2.76c.392 0 .71.318.71.71v5.683c0 1.28-.782 2.379-1.894 2.843v8.524c0 .654-.53 1.184-1.184 1.184-.654 0-1.184-.53-1.184-1.184v-8.524c-1.113-.464-1.895-1.562-1.895-2.843V3.47c0-.392.318-.71.71-.71.393 0 .711.318.711.71v4.026c0 .261.212.473.474.473.261 0 .473-.212.473-.473V3.47c0-.392.318-.71.71-.71.393 0 .711.318.711.71v4.026c0 .261.212.473.474.473.261 0 .473-.212.473-.473V3.47c0-.392.318-.71.71-.71zm5.504 0c1.597 0 3.079 1.81 3.079 4.83 0 .613.01 1.101 0 1.49v.073c0 1.28-.782 2.379-1.894 2.843v8.524c0 .654-.53 1.184-1.185 1.184-.654 0-1.184-.53-1.184-1.184v-8.524c-1.112-.464-1.894-1.562-1.894-2.843V9.08c-.01-.389 0-.877 0-1.49 0-3.02 1.482-4.83 3.078-4.83z"/>
                </g>
                <text fill="#1B1E35" font-family="OpenSans-Bold, Open Sans" font-size="16.474" font-weight="bold">
                    <tspan x="21.373" y="32.62">Today</tspan>
                </text>
            </g>
        </g>
    </g>
</svg>
