<svg xmlns="http://www.w3.org/2000/svg" xmlns:xlink="http://www.w3.org/1999/xlink" width="260" height="220" viewBox="0 0 260 220">
    <defs>
        <filter id="bx9civlu2a" width="104.1%" height="106.9%" x="-2%" y="-1.7%" filterUnits="objectBoundingBox">
            <feOffset dy="1" in="SourceAlpha" result="shadowOffsetOuter1"/>
            <feGaussianBlur in="shadowOffsetOuter1" result="shadowBlurOuter1" stdDeviation=".5"/>
            <feColorMatrix in="shadowBlurOuter1" values="0 0 0 0 0 0 0 0 0 0 0 0 0 0 0 0 0 0 0.0694067029 0"/>
        </filter>
        <filter id="5fvmkpukkc" width="104.1%" height="106.9%" x="-2%" y="-1.7%" filterUnits="objectBoundingBox">
            <feOffset dy="1" in="SourceAlpha" result="shadowOffsetOuter1"/>
            <feGaussianBlur in="shadowOffsetOuter1" result="shadowBlurOuter1" stdDeviation=".5"/>
            <feColorMatrix in="shadowBlurOuter1" values="0 0 0 0 0 0 0 0 0 0 0 0 0 0 0 0 0 0 0.0694067029 0"/>
        </filter>
        <filter id="d7xfi7p4ze" width="140.6%" height="168.9%" x="-20.3%" y="-29.4%" filterUnits="objectBoundingBox">
            <feOffset dy="4" in="SourceAlpha" result="shadowOffsetOuter1"/>
            <feGaussianBlur in="shadowOffsetOuter1" result="shadowBlurOuter1" stdDeviation="8.5"/>
            <feColorMatrix in="shadowBlurOuter1" values="0 0 0 0 0 0 0 0 0 0 0 0 0 0 0 0 0 0 0.102982955 0"/>
        </filter>
        <rect id="7qjwqk1apb" width="98.56" height="58.08" x=".44" y=".44" rx="13.2"/>
        <rect id="cxgrfx9nsd" width="98.56" height="58.08" x=".44" y=".44" rx="13.2"/>
        <rect id="7gmdw1zpdf" width="135.52" height="79.86" x=".605" y="7.605" rx="18.15"/>
    </defs>
    <g fill="none" fill-rule="evenodd">
        <rect width="260" height="220" rx="18"/>
        <path fill="#000" fill-opacity=".03" d="M57.762 49.976c37.1-37.1 97.25-37.1 134.35 0 31.444 31.444 36.238 79.447 14.381 115.94l13.11 13.11c7.615 7.614 7.615 19.961 0 27.576-7.616 7.616-19.963 7.616-27.578 0l-12.02-12.02c-37.103 26.453-88.953 23.035-122.243-10.255-37.1-37.1-37.1-97.25 0-134.35z"/>
        <g opacity=".695" transform="translate(76 16)">
            <use fill="#000" filter="url(#bx9civlu2a)" xlink:href="#7qjwqk1apb"/>
            <use fill="#FFF" xlink:href="#7qjwqk1apb"/>
            <rect width="32.56" height="5.28" x="57.2" y="22" fill="#F2F2F9" rx="2.64"/>
            <rect width="32.56" height="5.28" x="57.2" y="30.8" fill="#F2F2F9" rx="2.64"/>
            <g transform="translate(7.04 7.92)">
                <circle cx="21.56" cy="21.56" r="21.56" fill="#F2F2F9"/>
                <g transform="translate(4.4 6.6)">
                    <ellipse cx="17.424" cy="21.344" fill="#7C7E92" rx="17.424" ry="5.663"/>
                    <ellipse cx="17.424" cy="19.602" fill="#9EA6BB" rx="17.424" ry="5.663"/>
                    <path fill="#FFF" d="M31.363 17.909c0-7.485-6.24-13.553-13.939-13.553-7.698 0-13.94 6.068-13.94 13.553 0 6.613 27.88 6.613 27.88 0z"/>
                    <path fill="#D9D9E3" d="M31.363 17.037c0-7.484-6.24-13.552-13.939-13.552-7.698 0-13.94 6.068-13.94 13.552 0 6.614 27.88 6.614 27.88 0z"/>
                    <path fill="#FFF" d="M14.81 5.514v.895c-3.83.93-6.811 3.854-7.621 7.53h-.891c.834-4.16 4.2-7.46 8.513-8.425z"/>
                    <circle cx="17.424" cy="1.742" r="1.742" fill="#9EA6BB"/>
                </g>
            </g>
        </g>
        <g opacity=".695" transform="translate(76 141)">
            <use fill="#000" filter="url(#5fvmkpukkc)" xlink:href="#cxgrfx9nsd"/>
            <use fill="#FFF" xlink:href="#cxgrfx9nsd"/>
            <rect width="32.56" height="5.28" x="57.2" y="22" fill="#F2F2F9" rx="2.64"/>
            <rect width="32.56" height="5.28" x="57.2" y="30.8" fill="#F2F2F9" rx="2.64"/>
            <g transform="translate(7.04 7.92)">
                <circle cx="21.56" cy="21.56" r="21.56" fill="#F2F2F9"/>
                <g transform="translate(6.6 8.8)">
                    <path fill="#D8D8D8" fill-opacity="0" d="M5.005 2.145H26.455V23.595H5.005z"/>
                    <path fill="#9EA6BB" d="M25.14 25.724c-.798.799-2.094.799-2.893 0-.146-.147-.256-.313-.349-.487-.528.003-1.056-.196-1.458-.598-.08-.08-.148-.165-.212-.253l-2.32 2.784-2.893-2.893 2.784-2.32c-.088-.064-.173-.132-.252-.212-.403-.402-.601-.931-.598-1.458-.174-.093-.34-.203-.487-.35-.799-.799-.799-2.094 0-2.893.799-.799 2.094-.799 2.893 0 .799-.799 2.094-.799 2.893 0 .146.146.257.313.35.487.527-.003 1.055.195 1.458.598.402.402.6.93.598 1.458.174.093.34.204.486.35.8.799.8 2.094 0 2.893.8.8.8 2.094 0 2.894z"/>
                    <circle cx="13.585" cy="1.43" r="1.43" fill="#9EA6BB"/>
                    <circle cx="20.735" cy="2.86" r="1.43" fill="#9EA6BB"/>
                    <path fill="#D9D9E3" d="M15.425 12.155c1.18 0 3.165-.917 3.165-2.048s-.957-2.957-2.137-2.957c-1.18 0-2.868 1.207-2.868 2.338 0 1.13.66 2.667 1.84 2.667zM25.15 15.015c1.687 0 4.523-1.179 4.523-2.633S28.306 8.58 26.62 8.58s-4.097 1.551-4.097 3.006c0 1.454.942 3.429 2.628 3.429zM8.529 23.238c1.602 0 2.196-2.892 2.196-4.577s-2.647-2.573-4.25-2.573c-1.601 0-2.9 2.413-2.9 4.098s3.352 3.052 4.954 3.052z"/>
                    <path fill="#9EA6BB" d="M2.896 1.02l.038.014c.366.13 3.245 1.161 4.539 2.059 3.123 2.167 3.759 5.151 2.934 8.554-.363-.342-.71-.715-1.044-1.12C8.188 9.102 6.59 6.544 4.568 2.855c1.973 4.637 3.769 7.884 5.388 9.742l-.12.109C6.313 13.58 1.61 9.638 2.896 1.02z"/>
                </g>
            </g>
        </g>
        <g transform="translate(58 62)">
            <use fill="#000" filter="url(#d7xfi7p4ze)" xlink:href="#7gmdw1zpdf"/>
            <use fill="#FFF" xlink:href="#7gmdw1zpdf"/>
            <rect width="42.77" height="7.26" x="78.65" y="37.95" fill="#EAEDF4" rx="3.63"/>
            <rect width="42.77" height="7.26" x="78.65" y="50.05" fill="#EAEDF4" rx="3.63"/>
            <g transform="translate(9.68 .89)">
                <g transform="rotate(-180 29.077 35.93)">
                    <path fill="#69922C" d="M44.553 10.521C44.553 4.711 37.475 0 28.743 0c-8.73 0-15.808 4.71-15.808 10.521 0 5.134 31.618 5.134 31.618 0z"/>
                    <path fill="#90C444" d="M57.488 31.281c0-15.688-12.87-28.407-28.744-28.407C12.869 2.874 0 15.593 0 31.281c0 13.863 57.488 13.863 57.488 0z"/>
                    <ellipse cx="28.744" cy="34.493" fill="#F8FAFF" rx="28.744" ry="7.186"/>
                    <path fill="#FFF" d="M22.995 7.186v1.831c-7.761 1.903-13.8 7.892-15.442 15.415H5.75c1.69-8.514 8.51-15.27 17.246-17.246z"/>
                </g>
                <path fill="#90C444" d="M55.28 0s-.393 5.811-1.292 8.54c-2.108 6.404-6.659 8.734-12.499 8.706.415-.895.906-1.774 1.472-2.637 1.696-2.587 4.945-6.382 9.746-11.384C46.51 8.51 42.314 12.9 40.12 16.4 37.696 10.876 41.902 1.666 55.28 0zM7.852 12.935s.322 4.842 1.057 7.117c1.724 5.337 5.448 7.278 10.227 7.254-.34-.746-.741-1.478-1.204-2.197-1.388-2.156-4.046-5.318-7.974-9.486 5.07 4.402 8.503 8.062 10.298 10.978 1.983-4.602-1.458-12.278-12.404-13.666z"/>
                <circle cx="35.159" cy="35.93" r="2.874" fill="#FF9650"/>
                <circle cx="27.973" cy="5.749" r="2.874" fill="#FF9650"/>
                <path fill="#FFC119" d="M30.234 25.87c2.372 0 6.362-1.844 6.362-4.117 0-2.274-1.923-5.944-4.295-5.944s-5.765 2.426-5.765 4.7c0 2.273 1.326 5.36 3.698 5.36zM23.446 41.678c2.254 0 3.09-4.068 3.09-6.439 0-2.37-3.725-3.62-5.98-3.62-2.253 0-4.08 3.396-4.08 5.767 0 2.37 4.716 4.292 6.97 4.292z"/>
            </g>
        </g>
    </g>
</svg>
