<svg xmlns="http://www.w3.org/2000/svg" width="168" height="53" viewBox="0 0 168 53">
    <defs>
        <linearGradient id="prefix__a" x1="80.051%" x2="19.949%" y1="0%" y2="78.657%">
            <stop offset="0%" stop-color="#97FF00"/>
            <stop offset="100%" stop-color="#FFEC00"/>
        </linearGradient>
    </defs>
    <g fill="none" fill-rule="evenodd">
        <path fill="url(#prefix__a)" d="M13.8.966c.994 0 1.8.806 1.8 1.8v14.4c0 3.244-1.981 6.026-4.8 7.202v21.598c0 1.657-1.343 3-3 3s-3-1.343-3-3V24.368C1.983 23.193 0 20.411 0 17.166v-14.4c0-.994.806-1.8 1.8-1.8s1.8.806 1.8 1.8v10.2c0 .662.537 1.2 1.2 1.2.663 0 1.2-.538 1.2-1.2v-10.2c0-.994.806-1.8 1.8-1.8s1.8.806 1.8 1.8v10.2c0 .662.537 1.2 1.2 1.2.663 0 1.2-.538 1.2-1.2v-10.2c0-.994.806-1.8 1.8-1.8zm15.6 0c4.045 0 7.8 4.588 7.8 12.24 0 1.548.027 2.783 0 3.768v.192c0 3.244-1.981 6.026-4.8 7.202v21.598c0 1.657-1.343 3-3 3s-3-1.343-3-3V24.368c-2.818-1.175-4.8-3.957-4.8-7.202v-.158c-.028-.99 0-2.236 0-3.802 0-7.652 3.755-12.24 7.8-12.24z"/>
        <path fill="#1B1E35" fill-rule="nonzero" d="M58.65 20.153v-6.955c0-.672-.084-1.16-.252-1.462-.168-.302-.445-.454-.832-.454-.285 0-.558.135-.819.404-.26.268-.39.747-.39 1.436v7.03h-5.821V6.899h5.67v1.461h.05c.168-.218.374-.432.617-.642.244-.21.521-.404.832-.58.31-.176.66-.32 1.046-.428.386-.11.806-.164 1.26-.164.873 0 1.63.155 2.268.466.638.31 1.142.794 1.512 1.449.437-.538.974-.991 1.613-1.36.638-.37 1.444-.555 2.419-.555.94 0 1.718.185 2.33.554.614.37 1.101.832 1.462 1.386.362.555.614 1.155.756 1.802.143.647.215 1.247.215 1.802v8.064h-5.822v-7.056c0-.723-.088-1.206-.264-1.45-.177-.243-.45-.365-.82-.365-.335 0-.62.156-.856.467-.235.31-.353.768-.353 1.373v7.03H58.65zm19.261-.504L72.544 6.898h6.45l1.966 6.98h.101l1.739-6.98h6.224l-5.443 14.061c-.319.823-.68 1.558-1.083 2.205-.404.647-.874 1.197-1.412 1.65-.537.454-1.171.799-1.902 1.034-.731.235-1.584.353-2.558.353-.302 0-.613-.013-.932-.038-.32-.025-.626-.059-.92-.1-.294-.043-.567-.085-.82-.127-.251-.042-.461-.088-.63-.138l.732-4.788c.218.084.483.155.793.214.311.059.593.088.845.088.638 0 1.113-.13 1.423-.39.311-.261.542-.593.693-.996l.101-.277zm15.918-6.174c0-.857.13-1.697.39-2.52.261-.823.643-1.563 1.147-2.218s1.134-1.184 1.89-1.587c.756-.404 1.63-.605 2.621-.605.639 0 1.277.122 1.915.365.639.244 1.151.592 1.538 1.046h.05V1.102h5.796v19.05h-5.216v-1.385h-.05c-.387.537-.95.962-1.69 1.272-.738.311-1.52.467-2.343.467-.991 0-1.865-.202-2.62-.605-.757-.403-1.387-.937-1.89-1.6-.505-.664-.887-1.416-1.147-2.256-.26-.84-.39-1.697-.39-2.57zm5.393 0c0 .638.185 1.172.554 1.6.37.428.908.643 1.613.643.689 0 1.24-.219 1.65-.656.412-.436.618-.966.618-1.587 0-.588-.206-1.1-.617-1.537-.412-.437-.962-.656-1.65-.656-.706 0-1.244.219-1.614.656-.37.436-.554.949-.554 1.537zm11.6-6.577h5.822v13.255h-5.822V6.898zm-.1-3.83c0-.404.08-.786.239-1.147.16-.362.378-.677.655-.945.277-.27.6-.483.97-.643.37-.16.765-.24 1.185-.24.403 0 .781.08 1.134.24.353.16.668.374.945.643.277.268.495.583.655.945.16.36.24.743.24 1.146 0 .42-.08.81-.24 1.172-.16.361-.378.672-.655.932s-.592.467-.945.618c-.353.15-.731.227-1.134.227-.42 0-.815-.076-1.185-.227-.37-.151-.693-.357-.97-.618-.277-.26-.495-.57-.655-.932-.16-.361-.24-.752-.24-1.172zm16.388 8.693c0-.47-.172-.857-.517-1.16-.344-.301-.81-.453-1.398-.453-.639 0-1.134.177-1.487.53-.353.352-.554.714-.605 1.083h4.007zm5.015 1.89c0 .219-.004.441-.013.668-.008.227-.02.416-.038.567h-8.92c.016.235.096.445.239.63s.32.344.53.479c.21.134.444.235.705.302.26.067.525.1.794.1.537 0 .987-.096 1.348-.289.361-.193.634-.407.819-.642l4.133 2.091c-.588.958-1.441 1.714-2.558 2.268-1.117.555-2.415.832-3.894.832-.957 0-1.89-.151-2.797-.454-.907-.302-1.71-.752-2.406-1.348-.698-.596-1.256-1.34-1.676-2.23-.42-.89-.63-1.924-.63-3.1 0-1.092.193-2.079.58-2.96.386-.883.91-1.63 1.574-2.244.664-.613 1.445-1.087 2.344-1.423.899-.336 1.86-.504 2.885-.504 1.042 0 1.991.18 2.848.541.857.362 1.592.866 2.205 1.512.613.647 1.088 1.416 1.424 2.306.336.89.504 1.857.504 2.898zm6.762 6.855c-1.781 0-3.1-.383-3.957-1.147-.856-.764-1.285-1.953-1.285-3.566v-4.737h-1.865V6.898h1.84V3.924h5.645v2.974h2.873v4.158h-2.873v3.528c0 .638.138 1.07.416 1.297.277.227.659.34 1.146.34.185 0 .378-.016.58-.05.201-.033.361-.067.479-.1v3.98c-.303.135-.727.245-1.273.329-.546.084-1.121.126-1.726.126zM58.65 46.553v-6.955c0-.672-.084-1.16-.252-1.462-.168-.302-.445-.454-.832-.454-.285 0-.558.135-.819.404-.26.268-.39.747-.39 1.436v7.03h-5.821V33.299h5.67v1.461h.05c.168-.218.374-.432.617-.642.244-.21.521-.404.832-.58.31-.176.66-.32 1.046-.428.386-.11.806-.164 1.26-.164.873 0 1.63.155 2.268.466.638.31 1.142.794 1.512 1.449.437-.538.974-.991 1.613-1.36.638-.37 1.444-.555 2.419-.555.94 0 1.718.185 2.33.554.614.37 1.101.832 1.462 1.386.362.555.614 1.155.756 1.802.143.647.215 1.247.215 1.802v8.064h-5.822v-7.056c0-.723-.088-1.206-.264-1.45-.177-.243-.45-.365-.82-.365-.335 0-.62.156-.856.467-.235.31-.353.768-.353 1.373v7.03H58.65zM82.9 38.16c0-.47-.171-.857-.516-1.16-.344-.301-.81-.453-1.398-.453-.639 0-1.134.177-1.487.53-.353.352-.555.714-.605 1.083h4.007zm5.016 1.89c0 .219-.005.441-.013.668-.008.227-.021.416-.038.567h-8.92c.016.235.096.445.239.63s.319.344.529.479c.21.134.445.235.706.302.26.067.525.1.793.1.538 0 .987-.096 1.349-.289.36-.193.634-.407.819-.642l4.132 2.091c-.588.958-1.44 1.714-2.557 2.268-1.118.555-2.415.832-3.894.832-.957 0-1.89-.151-2.797-.454-.907-.302-1.71-.752-2.407-1.348-.697-.596-1.255-1.34-1.675-2.23-.42-.89-.63-1.924-.63-3.1 0-1.092.193-2.079.58-2.96.386-.883.91-1.63 1.574-2.244.664-.613 1.445-1.087 2.344-1.423.899-.336 1.86-.504 2.885-.504 1.042 0 1.991.18 2.848.541.857.362 1.592.866 2.205 1.512.613.647 1.088 1.416 1.424 2.306.336.89.504 1.857.504 2.898zm7.92 1.008c-.856 0-1.545.093-2.066.277-.52.185-.78.53-.78 1.034 0 .184.041.34.125.466.084.126.193.23.328.315.134.084.281.147.44.189.16.042.307.063.442.063.554 0 1-.177 1.335-.53.336-.352.504-.806.504-1.36v-.454h-.327zm-.05-2.923c0-.403-.138-.701-.415-.895-.278-.193-.643-.29-1.097-.29-.537 0-1.045.114-1.524.34-.479.228-.903.492-1.273.795l-2.898-2.873c.807-.773 1.764-1.37 2.873-1.79 1.109-.42 2.251-.63 3.427-.63 1.26 0 2.302.177 3.125.53.823.353 1.474.84 1.953 1.461.479.622.815 1.344 1.008 2.168.193.823.29 1.696.29 2.62v6.98h-5.267v-1.058h-.05c-.336.504-.815.866-1.437 1.084-.621.218-1.226.328-1.814.328-.521 0-1.054-.076-1.6-.227-.546-.151-1.042-.395-1.487-.731-.445-.336-.81-.773-1.096-1.31-.286-.538-.429-1.202-.429-1.991 0-.924.24-1.676.718-2.256.48-.58 1.088-1.033 1.827-1.36.74-.328 1.567-.55 2.483-.668.915-.118 1.81-.177 2.683-.177v-.05zm6.813-10.634h5.947v19.05h-5.947v-19.05zm22.142 19.404c-.655 0-1.302-.122-1.94-.366-.639-.243-1.16-.584-1.563-1.02h-.05v7.08h-5.77V33.299h5.468v1.335h.05c.487-.554 1.075-.974 1.764-1.26.689-.285 1.36-.428 2.016-.428.991 0 1.865.201 2.62.605.757.403 1.387.932 1.89 1.587.505.655.887 1.395 1.147 2.218s.391 1.663.391 2.52c0 .873-.13 1.73-.39 2.57-.261.84-.643 1.592-1.147 2.256-.504.663-1.13 1.197-1.878 1.6-.747.403-1.617.605-2.608.605zm.63-7.031c0-.588-.185-1.1-.554-1.537-.37-.437-.907-.656-1.613-.656-.689 0-1.239.219-1.65.656-.412.436-.618.949-.618 1.537 0 .621.206 1.15.617 1.587.412.437.962.656 1.651.656.706 0 1.243-.215 1.613-.643.37-.428.554-.962.554-1.6zm6.485-12.373h5.947v19.05h-5.947v-19.05zm14.65 13.557c-.857 0-1.546.093-2.067.277-.52.185-.781.53-.781 1.034 0 .184.042.34.126.466.084.126.193.23.328.315.134.084.281.147.44.189.16.042.307.063.442.063.554 0 1-.177 1.335-.53.336-.352.504-.806.504-1.36v-.454h-.327zm-.05-2.923c0-.403-.14-.701-.417-.895-.277-.193-.642-.29-1.096-.29-.537 0-1.046.114-1.524.34-.48.228-.903.492-1.273.795l-2.898-2.873c.806-.773 1.764-1.37 2.873-1.79 1.109-.42 2.251-.63 3.427-.63 1.26 0 2.302.177 3.125.53.823.353 1.474.84 1.953 1.461.479.622.815 1.344 1.008 2.168.193.823.29 1.696.29 2.62v6.98h-5.267v-1.058h-.05c-.337.504-.815.866-1.437 1.084-.622.218-1.226.328-1.814.328-.521 0-1.055-.076-1.6-.227-.547-.151-1.042-.395-1.487-.731-.446-.336-.811-.773-1.097-1.31-.285-.538-.428-1.202-.428-1.991 0-.924.24-1.676.718-2.256.479-.58 1.088-1.033 1.827-1.36.74-.328 1.567-.55 2.482-.668.916-.118 1.81-.177 2.684-.177v-.05zm6.812-4.838h5.67v1.461h.05c.336-.487.836-.911 1.5-1.272.663-.362 1.423-.542 2.28-.542.924 0 1.693.168 2.306.504.613.336 1.1.768 1.461 1.298.362.529.614 1.12.756 1.776.143.655.215 1.31.215 1.966v8.064h-5.847v-7.056c0-.672-.105-1.143-.315-1.411-.21-.27-.525-.404-.945-.404-.386 0-.701.156-.945.467-.243.31-.365.76-.365 1.348v7.056h-5.821V33.298z"/>
    </g>
</svg>
